<?xml version="1.0" encoding="UTF-8" standalone="no"?>
<svg
   xmlns:dc="http://purl.org/dc/elements/1.1/"
   xmlns:cc="http://creativecommons.org/ns#"
   xmlns:rdf="http://www.w3.org/1999/02/22-rdf-syntax-ns#"
   xmlns:svg="http://www.w3.org/2000/svg"
   xmlns="http://www.w3.org/2000/svg"
   xml:space="preserve"
   viewBox="0 0 612 792"
   height="792px"
   width="612px"
   y="0px"
   x="0px"
   id="Layer_1"
   version="1.2"><metadata
     id="metadata11"><rdf:RDF><cc:Work
         rdf:about=""><dc:format>image/svg+xml</dc:format><dc:type
           rdf:resource="http://purl.org/dc/dcmitype/StillImage" /></cc:Work></rdf:RDF></metadata><defs
     id="defs9" /><path
     id="path2"
     d="M599.952,792C399.988,792,199.964,792,0,792c0-72.046,0-144.113,0-216.159  c39.944-21.565,79.9-43.136,119.843-64.701c4.166-6.372,8.333-12.745,12.499-19.116c12.008-15.193,24.019-30.392,36.027-45.584  c6.375-4.689,13.707-1.864,22.057-5.882c2.293-13.843,10.87-18.211,18.381-26.469c-0.98-18.625-1.961-37.254-2.941-55.877  c-5.009,0.588-11.066,2.899-15.44,0c-9.492-6.293-31.44-72.471-27.204-89.699c7.275-5.694,10.579-7.039,22.057-5.882  c-0.395-6.368-2.577-37.477-5.147-44.114c8.506-29.45,7.264-93.642,46.32-102.198c0.515-14.05,23.91-29.715,36.762-31.615  c0,0,37.722-11.922,44.114-13.234c20.93-4.299,79.882,15.917,84.552,20.587c-1.608,0.343-0.739-0.174-0.735,1.47  c9.355,1.728,9.287,7.713,18.381,13.234c-0.726,2.952-1.545,2.442,0,4.412c33.11,41.01,40.917,79.687,34.556,153.664  c6.079-1.58,12.068-3.943,15.44,2.206c9.542,11.154-7.504,49.75-10.293,58.818c-8.774,28.533-10.047,52.678-23.527,77.2  c-9.173,16.687-26.933,33.311-30.88,51.466c-2.425,11.154-10.041,30.975-5.146,41.173c4.811-0.476,49.59,36.394,60.289,41.173  c26.848,11.994,59.82,12.938,81.611,29.41c28.313,21.4,45.3,64.168,55.143,103.668c4.034,16.187,3.596,34.406,8.823,48.525  c2.761,7.457,13.938,7.06,16.175,16.175c3.851,15.695-10.87,19.525-13.969,27.939C598.481,772.393,599.217,782.198,599.952,792z"
     fill="#3362AE"
     fill-rule="evenodd" /><path
     id="path4"
     d="M3.5-46c-0.333,0.667-0.667,1.333-1,2c0.667-0.667,1.333-1.333,2-2  C4.167-46,3.833-46,3.5-46z"
     fill="none"
     fill-rule="evenodd" /></svg>